<?xml version="1.0" encoding="UTF-8" standalone="no"?>
<!-- Created with Inkscape (http://www.inkscape.org/) -->

<svg
   version="1.1"
   id="svg1"
   viewBox="0 0 400 267"
   sodipodi:docname="drawing2"
   inkscape:version="1.3 (0e150ed, 2023-07-21)"
   inkscape:export-filename="drawing2.svg"
   inkscape:export-xdpi="96"
   inkscape:export-ydpi="96"
   inkscape:dataloss="true"
   xmlns:inkscape="http://www.inkscape.org/namespaces/inkscape"
   xmlns:sodipodi="http://sodipodi.sourceforge.net/DTD/sodipodi-0.dtd"
   xmlns="http://www.w3.org/2000/svg"
   xmlns:svg="http://www.w3.org/2000/svg">
  <defs
     id="defs1" />
  <sodipodi:namedview
     id="namedview1"
     pagecolor="#ffffff"
     bordercolor="#000000"
     borderopacity="0.25"
     inkscape:showpageshadow="2"
     inkscape:pageopacity="0.0"
     inkscape:pagecheckerboard="0"
     inkscape:deskcolor="#d1d1d1"
     showgrid="false"
     inkscape:zoom="6.0662619"
     inkscape:cx="114.89778"
     inkscape:cy="69.235389"
     inkscape:window-width="1440"
     inkscape:window-height="847"
     inkscape:window-x="0"
     inkscape:window-y="25"
     inkscape:window-maximized="1"
     inkscape:current-layer="layer1" />
  <g
     inkscape:groupmode="layer"
     id="layer1"
     inkscape:label="drawing"
     style="display:inline">
    <clipPath
       id="clipPath3"
       inkscape:label="clipPath3">
      <path
         d="m 182.45929,111.86904 c 1.09299,-45.358951 18.82788,-73.673942 18.82788,-73.673942 1.50414,-2.80905 9.79839,-0.633053 9.19967,2.348346 -8.68218,19.477727 -13.41619,45.938407 -16.42379,74.575056 -0.37368,1.67546 -11.56329,-0.9601 -11.60376,-3.24946 z"
         id="path1"
         sodipodi:nodetypes="ccccc"
         inkscape:label="clipPath3-3" />
      <path
         d="M 108.92124,130.90796 C 92.114872,96.621019 49.570785,78.842454 49.570785,78.842454 46.577283,77.986497 42.92005,94.088841 44.740969,95.877603 c 20.452665,8.486207 36.491212,19.908437 48.9391,41.239407 1.073862,0.97241 15.959411,-4.39414 15.241171,-6.20905 z"
         id="path1-8-8"
         sodipodi:nodetypes="ccccc"
         inkscape:transform-center-x="-4.7238026"
         inkscape:transform-center-y="0.22982604"
         inkscape:label="clipPath2-3" />
      <path
         d="M 138.96088,118.98705 C 119.34252,71.76594 114.70637,37.754556 114.90395,40.125485 c -0.32592,-3.874139 9.35053,-6.904775 11.68905,-3.147303 8.01556,22.330595 14.64533,50.0757 21.14258,77.836868 0.40161,4.05014 -7.71966,6.2513 -8.7747,4.172 z"
         id="path1-8-0"
         sodipodi:nodetypes="ccccc"
         inkscape:transform-center-x="3.1497997"
         inkscape:transform-center-y="2.7875759"
         inkscape:label="clipPath1-3" />
    </clipPath>
    <clipPath
       id="clipPath2"
       inkscape:label="clipPath2">
      <path
         d="m 183.34013,111.85084 c -1.00329,-45.36102 17.36218,-74.287015 17.36218,-74.287015 1.37279,-2.875528 9.58075,-0.373191 9.12038,2.63268 -7.77324,19.857965 -12.34765,45.619352 -14.02933,74.364355 -0.29589,1.69093 -12.30706,-0.42498 -12.45323,-2.71002 z"
         id="path1-4"
         sodipodi:nodetypes="ccccc"
         inkscape:transform-center-x="3.6197944"
         inkscape:transform-center-y="21.281682"
         inkscape:label="clipPath3-2" />
      <path
         d="M 108.37755,131.55804 C 91.924371,98.023865 50.022193,78.57614 50.125371,78.266606 47.150363,77.348432 43.15825,93.371037 44.941484,95.197369 65.212799,104.10809 81.76053,115.4868 93.761042,137.07262 c 1.053357,0.99459 15.296758,-3.6851 14.616508,-5.51458 z"
         id="path1-8-8-3"
         sodipodi:nodetypes="ccccc"
         inkscape:transform-center-x="-4.6270548"
         inkscape:transform-center-y="0.22780555"
         inkscape:label="clipPath2-2" />
      <path
         d="m 138.47964,118.86587 c -18.72699,-47.581642 -22.7228,-81.674187 -22.56983,-79.299962 -0.25302,-3.879582 9.4787,-7.998254 11.74616,-4.197475 6.44034,22.971903 12.87693,51.777589 19.67527,79.491167 0.32538,4.05697 -7.83584,6.10504 -8.8516,4.00627 z"
         id="path1-8-0-5"
         sodipodi:nodetypes="ccccc"
         inkscape:transform-center-x="5.1553646"
         inkscape:transform-center-y="-13.055974"
         inkscape:label="clipPath1-2" />
    </clipPath>
    <clipPath
       id="clipPath1"
       inkscape:label="clipPath1">
      <path
         d="m 181.89487,112.42927 c 2.52676,-45.054058 20.02887,-73.725619 20.02887,-73.725619 1.55797,-2.651177 9.60674,-0.799118 8.92659,2.111263 -10.08802,20.813365 -14.83188,46.316545 -17.56084,75.527466 -0.41851,1.63194 -11.42884,-1.62989 -11.39462,-3.91311 z"
         id="path1-8"
         sodipodi:nodetypes="ccccc"
         inkscape:transform-center-x="3.093901"
         inkscape:transform-center-y="1.7893756"
         inkscape:label="clipPath3-1" />
      <path
         d="M 108.14929,131.72259 C 96.565603,97.813842 50.932255,78.653126 49.897108,78.431159 c -1.473446,-0.730485 -6.967121,15.10443 -5.183887,16.93076 20.271315,8.910721 36.819046,20.289431 48.819558,41.875251 1.053357,-0.31928 15.296761,-3.6851 14.616511,-5.51458 z"
         id="path1-8-8-3-9"
         sodipodi:nodetypes="ccccc"
         inkscape:transform-center-x="-4.6270548"
         inkscape:transform-center-y="0.22780555"
         inkscape:label="clipPath2-1" />
      <path
         d="M 139.03171,118.5628 C 118.33056,70.697017 113.43853,36.221299 113.64702,38.624596 c -0.34391,-3.92703 9.86661,-6.999041 12.3342,-3.190271 8.45796,22.635459 15.45364,50.759349 22.30949,78.899525 0.42378,4.10543 -8.14572,6.33664 -9.259,4.22895 z"
         id="path1-8-0-0"
         sodipodi:nodetypes="ccccc"
         inkscape:transform-center-x="3.3236463"
         inkscape:transform-center-y="2.8256312"
         inkscape:label="clipPath1-1">
    </clipPath>
    <path
       d="M 144.20038,119.62077 118.08567,31.496604"
       id="path3"
       sodipodi:nodetypes="cc" />
    <path
       d="m 187.19083,118.86343 c 0.72254,-42.337243 20.76938,-83.010079 20.76938,-83.010079"
       id="path2"
       sodipodi:nodetypes="cc"
       inkscape:label="path2" />
    <path
       d="M 102.74056,137.26178 C 83.108058,95.143536 49.674574,86.422503 42.747722,86.186305"
       id="path1"
       sodipodi:nodetypes="cc"
       inkscape:label="path1"
       inkscape:transform-center-x="-1.9132819"
       inkscape:transform-center-y="-4.4547566" />
  </g>
</svg>
