<?xml version="1.0" encoding="UTF-8" standalone="no"?>
<!-- Created with Inkscape (http://www.inkscape.org/) -->

<svg
   version="1.1"
   id="svg1"
   viewBox="0 0 400 267"
   sodipodi:docname="drawing3.svg"
   inkscape:export-filename="../../images/drawing3.svg"
   inkscape:export-xdpi="96"
   inkscape:export-ydpi="96"
   inkscape:version="1.3 (0e150ed, 2023-07-21)"
   xmlns:inkscape="http://www.inkscape.org/namespaces/inkscape"
   xmlns:sodipodi="http://sodipodi.sourceforge.net/DTD/sodipodi-0.dtd"
   xmlns="http://www.w3.org/2000/svg"
   xmlns:svg="http://www.w3.org/2000/svg">
  <defs
     id="defs1" />
  <sodipodi:namedview
     id="namedview1"
     pagecolor="#ffffff"
     bordercolor="#000000"
     borderopacity="0.25"
     inkscape:showpageshadow="2"
     inkscape:pageopacity="0.0"
     inkscape:pagecheckerboard="0"
     inkscape:deskcolor="#d1d1d1"
     showgrid="false"
     inkscape:zoom="1.8181402"
     inkscape:cx="257.95591"
     inkscape:cy="144.65331"
     inkscape:window-width="1440"
     inkscape:window-height="847"
     inkscape:window-x="0"
     inkscape:window-y="25"
     inkscape:window-maximized="1"
     inkscape:current-layer="layer1" />
    <mask
       id="mask3"
       inkscape:label="mask3">
      <title
         id="title66">mask3</title>
      <path
         d="m 103.79147,172.98578 c -0.93169,-1.15906 -2.28036,-0.0591 -3.31754,-0.47393 -0.41487,-0.16595 -0.564711,-0.71798 -0.947864,-0.94787 -0.197854,-0.11871 -7.86803,-3.31753 -8.056872,-3.31753"
         id="path8"
         inkscape:label="path8" />
      <path
         d="m 112.79621,157.81991 c -0.78989,-0.63192 -1.65439,-1.18046 -2.36967,-1.89574 -0.40277,-0.40277 -0.59204,-0.97702 -0.94787,-1.4218 -1.10602,-1.38253 -2.72972,-2.37581 -3.79147,-3.79147 -0.21195,-0.2826 -0.22414,-0.69808 -0.47393,-0.94787 -1.07571,-1.07571 -2.7875,-1.83963 -3.79147,-2.8436"
         id="path9" />
      <path
         d="m 121.80095,144.54976 c -0.21512,-4.20689 -4.73934,-8.09777 -4.73934,-11.84834"
         id="path10" />
      <path
         d="m 142.65403,135.54502 c 0,-3.31753 0,-6.63507 0,-9.9526"
         id="path11" />
      <path
         d="m 163.98104,137.91469 c 0,-3.31753 0,-6.63507 0,-9.9526"
         id="path12" />
      <path
         d="m 178.67299,142.65403 c 0.71241,-3.09007 1.97286,-5.84146 3.31753,-8.53081 0.0707,-0.1413 -0.11171,-0.36222 0,-0.47393 0.23697,-0.23697 0.7109,-0.23697 0.94787,-0.47393 0.19937,-0.19938 -0.0868,-1.72215 0,-1.89574 0.63191,-1.26382 0.47393,1.4218 0.47393,-0.47393"
         id="path13" />
      <path
         d="m 193.83886,145.49763 c 1.5427,-1.29343 4.26858,-1.42497 5.68721,-2.8436 0.24978,-0.24979 0.22415,-0.69808 0.47393,-0.94787 0.24978,-0.24978 0.69808,-0.22415 0.94787,-0.47393 0.70076,-0.70076 2.11578,-2.8436 3.31753,-2.8436"
         id="path14" />
      <path
         d="m 304.34034,117.89761 c -1.46566,-0.17608 -2.71354,-0.7195 -3.73882,-1.74479"
         id="path15" />
      <path
         d="m 303.34332,124.12898 c -1.22191,-0.0379 -3.57865,0.16017 -4.48659,-0.74776"
         id="path16" />
      <path
         d="m 300.35226,129.86185 c -1.76929,-0.0355 -3.46684,0.24925 -5.23435,0.24925"
         id="path17" />
      <path
         d="m 314.31054,151.54703 c -0.26395,1.00518 -0.83144,4.57027 -1.49553,5.23436"
         id="path18" />
      <path
         d="m 320.04341,153.54107 c 0,1.24628 0,2.49255 0,3.73883"
         id="path19" />
      <path
         d="m 327.52106,151.54703 c 0.32693,1.08777 0.79298,1.83522 1.24627,2.74181 0.0743,0.14863 -0.1175,0.38101 0,0.49851 0.23215,0.23215 0.24926,-0.0196 0.24926,0.49851"
         id="path20" />
      <path
         d="m 104.79626,173.74116 c -2.88785,-0.16518 -5.524749,-1.72106 -8.273391,-2.54565 -0.345359,-0.10361 -0.718628,-0.0981 -1.060691,-0.21214 -0.723838,-0.24128 -1.353605,-0.695 -2.121382,-0.84855 -0.138679,-0.0277 -0.290108,0.0447 -0.424276,0 -0.496146,-0.16539 -0.799879,-0.82422 -1.272829,-1.0607 -0.06325,-0.0316 -0.162137,0.05 -0.212138,0 -0.05,-0.05 0.05,-0.16213 0,-0.21213 -0.106069,-0.10607 -0.318207,-0.10607 -0.424277,-0.21214 -0.28285,-0.28285 0.282851,-1.41426 0,-1.69711 -0.05,-0.05 -0.141425,0 -0.212138,0 -0.07071,-0.0707 -0.141425,-0.14142 -0.212138,-0.21214"
         id="path34"
         inkscape:label="path34" />
    </mask>
    <mask
       id="mask2"
       inkscape:label="mask2">
      <title
         id="title64">mask2</title>
      <path
         d="m 305.63962,118.58686 c -1.24567,-0.12554 -2.30141,-0.74329 -3.27588,-1.47415 -0.19264,-0.14447 -0.4246,-0.53988 -0.65518,-0.65517 -0.19516,-0.0976 -0.67106,-0.17967 -0.81897,-0.32759 -0.0386,-0.0386 0.0244,-0.11496 0,-0.16379 -0.18003,-0.36006 -0.59274,-0.81897 -0.98276,-0.81897"
         id="path28" />
      <path
         d="m 327.09663,150.85428 c 0.68869,1.36707 1.59738,2.78603 1.96553,4.25864 0.14776,0.59105 0.49138,0.66402 0.49138,1.31036"
         id="path33"
         inkscape:label="path33" />
      <path
         d="m 163.63021,138.56973 c 0,-2.23852 0,-4.47704 0,-6.71555 0,-0.55875 0.10886,-1.25747 0,-1.80174 -0.0239,-0.11971 -0.13418,-0.20915 -0.16379,-0.32759 -0.0808,-0.32313 0.14738,-0.8518 0,-1.14656 -0.24355,-0.48708 -0.0389,-0.64688 -0.1638,-1.14655 -0.10662,-0.42649 -0.16379,-0.69117 -0.16379,-1.14656"
         id="path25" />
      <path
         d="m 113.01786,158.06122 c -2.22736,-2.4085 -5.09496,-4.1812 -7.20693,-6.71556 -0.39737,-0.47684 -0.74919,-0.9973 -1.14656,-1.47414 -0.24715,-0.29659 -0.58733,-0.51012 -0.81897,-0.81897 -0.50035,-0.66714 -0.95245,-1.41352 -1.31035,-2.12933 -0.34084,-0.68167 0.0113,0.17511 -0.32759,-0.16379 -0.1266,-0.1266 -0.36248,-0.85386 -0.49138,-0.98276 -0.14459,-0.14459 -0.65518,-0.22908 -0.65518,-0.49139"
         id="path22" />
      <path
         d="m 178.04408,143.97493 c -0.0585,-2.02986 1.06981,-3.83902 1.63794,-5.73279 0.24208,-0.80691 0.54107,-2.21212 0.98277,-2.94829 0.21545,-0.35909 0.48921,-0.56785 0.65517,-0.98276 0.36856,-0.92138 0.83392,-1.84659 1.14656,-2.7845 0.0345,-0.1036 -0.0488,-0.22992 0,-0.32759 0.0954,-0.1908 0.23219,-0.30058 0.32759,-0.49138 0.0488,-0.0977 -0.0772,-0.25038 0,-0.32759 0.10043,-0.10043 0.32759,-0.11223 0.32759,-0.49138"
         id="path26" />
      <path
         d="m 192.13037,145.44908 c 0.42265,-0.14277 0.88205,0.0857 1.31035,0 1.87264,-0.37453 5.62274,-2.63094 7.04314,-3.76726 0.35822,-0.28658 0.61594,-0.70765 0.98277,-0.98277 0.0977,-0.0733 0.24126,-0.0775 0.32759,-0.16379 0.33686,-0.33686 0.55055,-0.85842 0.98276,-1.14656 0.10158,-0.0677 0.24126,-0.0775 0.32759,-0.16379 0.12329,-0.12329 0.40224,-0.72984 0.49138,-0.81897 0.0863,-0.0863 0.24126,-0.0775 0.32759,-0.1638"
         id="path27" />
      <path
         d="m 303.01891,123.50068 c -1.23938,0.10729 -1.80229,-2.8e-4 -2.7845,-0.49138 -0.0977,-0.0488 -0.22992,0.0488 -0.32758,0 -0.23649,-0.11824 -0.4187,-0.20935 -0.65518,-0.32759 -0.13104,-0.0655 -0.36035,0.0655 -0.49138,0 -0.4048,-0.2024 0.0565,-0.16379 -0.32759,-0.16379"
         id="path29" />
      <path
         d="m 300.7258,129.88865 c -1.85634,0 -3.71267,0 -5.569,0"
         id="path30" />
      <path
         d="m 313.99311,150.3629 c 0,0.65517 0,1.31035 0,1.96553 0,0.62928 0.20373,1.68193 0,2.29311 -0.0738,0.22151 -0.21986,0.43972 -0.32759,0.65518 -0.0488,0.0977 0.0772,0.25037 0,0.32759 -0.0386,0.0386 -0.12519,-0.0386 -0.16379,0 -0.0772,0.0772 0.0772,0.25037 0,0.32758 -0.0386,0.0386 -0.12519,-0.0386 -0.1638,0 -0.0931,0.0931 -0.0986,0.85248 -0.16379,0.98277 -0.2024,0.4048 -0.16379,-0.0565 -0.16379,0.32759"
         id="path31" />
      <path
         d="m 320.70866,152.32843 c 0,0.21839 -0.21839,0.65517 0,0.65517 0.2184,0 0,-0.87357 0,-0.65517 0,1.52874 0,3.05748 0,4.58623"
         id="path32" />
      <path
         d="m 142.33699,135.94903 c -0.0716,-2.35114 0.23564,-4.79024 -0.32759,-7.04315 -0.0882,-0.3528 0.11466,-0.80257 0,-1.14656 -0.27991,-0.83974 -0.49138,-1.884 -0.49138,-2.78449"
         id="path24"
         inkscape:label="path24" />
      <path
         d="m 104.33678,172.96647 c -2.01459,-0.47383 -3.90153,-1.37749 -5.732788,-2.29312 -0.730189,-0.36509 -1.569708,-0.45726 -2.293116,-0.81897 -0.290865,-0.14543 -0.514371,-0.55364 -0.81897,-0.65517 -0.103593,-0.0345 -0.223996,0.0345 -0.327588,0 -0.399965,-0.13332 -0.746594,-0.68565 -1.146558,-0.81897 -0.103593,-0.0345 -0.223996,0.0345 -0.327588,0 -0.357771,-0.11926 -0.640727,-0.64795 -0.982764,-0.81897 -0.182476,-0.0912 -1.258418,-0.27565 -1.310352,-0.32759 -0.03861,-0.0386 0.03861,-0.12519 0,-0.16379 -0.175035,-0.17504 -0.327589,0.23284 -0.327589,-0.1638"
         id="path21" />
      <path
         d="m 121.69895,144.46631 c -0.18325,-0.28593 0.10895,-0.81968 0,-1.14655 -0.0333,-0.1 -0.29427,-0.39143 -0.32759,-0.49139 -0.0345,-0.10359 0.0265,-0.22165 0,-0.32758 -0.0999,-0.39961 -0.49685,-0.75075 -0.65518,-1.14656 -0.12824,-0.32061 -0.17316,-0.67391 -0.32759,-0.98277 -0.98345,-1.9669 0.25892,0.70452 -0.65517,-0.81897 -0.33033,-0.55055 0.004,-0.37701 -0.32759,-0.81897 -0.46578,-0.62104 -1.00849,-1.18086 -1.47415,-1.80173 -0.1465,-0.19534 -0.18108,-0.45984 -0.32758,-0.65518 -0.0927,-0.12354 -0.25853,-0.18946 -0.32759,-0.32758 -0.48433,-0.96866 0.59033,0.35032 -0.1638,-0.65518 -0.24105,-0.32141 -0.47171,-0.61585 -0.65517,-0.98276 -0.31835,-0.63669 -0.34144,-1.50186 -0.65518,-2.12933 -0.0494,-0.0989 0.0757,-0.41566 0,-0.49138 -0.0386,-0.0386 -0.10919,0 -0.16379,0"
         id="path23"
         inkscape:label="path23" />
    </mask>
    <mask
       id="mask1"
       inkscape:label="mask1">
      <title
         id="title65">mask1</title>
      <path
         d="m 104.15984,173.31689 c -1.2098,-0.44168 -2.62817,-0.55056 -3.81848,-1.06069 -0.23435,-0.10044 -0.42428,-0.28285 -0.636418,-0.42428 -0.282851,-0.14142 -0.557885,-0.2997 -0.848553,-0.42428 -0.205533,-0.0881 -0.444668,-0.0971 -0.636415,-0.21213 -0.171503,-0.10291 -0.252772,-0.32138 -0.424276,-0.42428 -1.724924,-1.03495 0.227214,0.43433 -1.060691,-0.42428 -0.291867,-0.19457 -0.74107,-0.74201 -1.060691,-0.84855 -0.134168,-0.0447 -0.290108,0.0447 -0.424276,0 -0.189742,-0.0633 -0.245386,-0.33483 -0.424276,-0.42428 -0.181427,-0.0907 -0.454988,-0.12142 -0.636415,-0.21213 -0.178891,-0.0894 -0.245386,-0.33483 -0.424276,-0.42428 -0.252759,-0.12638 -0.869118,-0.2327 -1.060691,-0.42428 -0.05,-0.05 0.05,-0.16213 0,-0.21213 -0.100003,-0.10001 -0.324274,0.1 -0.424276,0 -0.05,-0.05 0.05,-0.16214 0,-0.21214 -0.101832,-0.10183 -0.717061,-0.29279 -0.848553,-0.42428 -0.106069,-0.10607 -0.106069,-0.31821 -0.212138,-0.42428 -0.100003,-0.1 -0.282851,0 -0.424277,0"
         id="path35" />
      <path
         d="m 111.79682,157.19439 c -1.41121,-1.97594 -3.05437,-3.70675 -4.87918,-5.30346 -0.45779,-0.40056 -1.05484,-0.63056 -1.48497,-1.06069 -0.18028,-0.18028 -0.24399,-0.45613 -0.42427,-0.63641 -0.46299,-0.46299 -1.07368,-0.72444 -1.48497,-1.27283 -0.18974,-0.25299 -0.20066,-0.62494 -0.42428,-0.84855 -0.34193,-0.34194 -0.92943,-0.7173 -1.27283,-1.0607 -0.36432,-0.36432 -0.86402,-1.6971 -1.27283,-1.6971"
         id="path36" />
      <path
         d="m 121.55517,144.04182 c 0.11845,-1.55965 -0.21563,-3.03083 -0.84855,-4.4549 -0.23154,-0.52097 -0.62398,-0.96096 -0.84855,-1.48497 -0.11485,-0.26798 -0.0817,-0.58778 -0.21214,-0.84855 -0.16751,-0.33503 -0.72288,-0.68367 -0.84855,-1.06069 -0.0447,-0.13417 0.0447,-0.29011 0,-0.42428 -0.0633,-0.18974 -0.31334,-0.25786 -0.42428,-0.42428 -0.41612,-0.62417 -0.75822,-1.3043 -1.06069,-1.90924 -0.23037,-0.46074 -0.27203,-1.02823 -0.42428,-1.48497 -0.14817,-0.44451 -0.42427,-0.74931 -0.42427,-1.27283"
         id="path37" />
      <path
         d="m 142.13258,135.76843 c -0.0262,-2.8489 0.13899,-5.67644 -0.21214,-8.48553 -0.0627,-0.50188 0.2353,-2.49934 0,-2.96993 -0.26214,-0.52428 -0.21214,0.0732 -0.21214,-0.42428"
         id="path38" />
      <path
         d="m 163.34639,139.16264 c 0,-2.75779 0,-5.51559 0,-8.27339 0,-0.47379 -0.14858,-1.25135 0,-1.6971 0.0316,-0.0949 0.16742,-0.1227 0.21214,-0.21214 0.17976,-0.35952 0,-1.28626 0,-1.69711"
         id="path39" />
      <path
         d="m 177.77179,145.10251 c -0.0837,-1.69439 0.53485,-3.30165 1.06069,-4.87918 0.39947,-1.19841 0.56192,-2.44256 1.06069,-3.60635 0.48754,-1.13759 1.51047,-1.95174 2.12138,-2.96993 1.03348,-1.72246 -0.0405,-0.0906 0.21214,-0.84855 0.18265,-0.54795 0.60526,-0.99838 0.84855,-1.48497 0.17637,-0.35273 0.55374,-1.90924 0.84856,-1.90924"
         id="path40" />
      <path
         d="m 192.19719,146.1632 c 1.01412,-0.0816 1.85284,-0.44635 2.75779,-0.84855 1.83097,-0.81377 3.32707,-1.94039 4.87918,-3.18207 1.90738,-1.52591 -0.74928,0.53713 0.63641,-0.84856 0.42009,-0.42009 1.08948,-0.66519 1.48497,-1.06069 0.33632,-0.33631 1.0933,-1.06069 1.27283,-1.06069"
         id="path41" />
      <path
         d="m 305.69111,118.58524 c -2.38431,-0.95373 0.0319,0.17433 -1.69711,-1.06069 -0.25733,-0.18381 -0.59122,-0.24047 -0.84855,-0.42428 -0.83952,-0.59966 -2.55122,-2.54566 -3.60635,-2.54566"
         id="path42" />
      <path
         d="m 303.14545,123.67656 c -0.34006,-0.25618 -3.16334,0.009 -3.60635,-0.21214 -0.3337,-0.16685 -0.24051,-0.21214 -0.63641,-0.21214"
         id="path43" />
      <path
         d="m 301.02407,130.25284 c -0.82841,0.26864 -3.55657,-0.3431 -4.24277,0 -0.56827,0.28414 -1.22734,0.21214 -1.90924,0.21214"
         id="path44" />
      <path
         d="m 313.32808,149.76955 c -0.32316,0.9478 0.39864,4.08191 0,4.87918 -0.28662,0.57325 -0.21214,1.21821 -0.21214,1.90924"
         id="path45"
         inkscape:label="path45" />
      <path
         d="m 320.96506,152.31521 c 0,1.62639 0,3.25278 0,4.87918"
         id="path46" />
      <path
         d="m 326.90493,151.25452 c 0.80286,1.62514 1.37188,2.74377 2.12138,4.24276 0.16336,0.32673 0.42427,0.35267 0.42427,0.63642"
         id="path47"
         inkscape:label="path47" />
    </mask>
    <g>
      <path
         d="m 305.59619,118.47765 -5.76814,-3.80698"
         id="path55" />
      <path
         d="m 302.94284,123.43825 -4.38378,-0.34609"
         id="path56" />
      <path
         d="m 300.52022,130.47538 h -5.30669"
         id="path57"
         inkscape:label="path57" />
      <path
         d="m 327.05165,151.41145 2.43324,4.98489"
         id="path60"
         sodipodi:nodetypes="cc"
         inkscape:label="path60" />
      <path
         d="m 320.82409,152.50969 0.11536,4.38379"
         id="path59"
         inkscape:label="path59" />
      <path
         d="m 313.21014,150.20243 -0.23073,5.99887"
         id="path58" />
      <path
         d="m 192.69297,145.86221 10.3652,-6.24411"
         id="path54" />
      <path
         d="m 177.58224,144.11386 5.61969,-12.98773"
         id="path53" />
      <path
         d="m 162.97104,137.99464 0.12489,-9.86568"
         id="path52" />
      <path
         d="M 141.86598,135.37212 141.7411,125.00691"
         id="path51" />
      <path
         d="m 121.42503,143.30905 -5.00205,-10.87948"
         id="path50"
         sodipodi:nodetypes="cc" />
      <path
         d="M 112.04617,157.06472 101.16669,146.06019"
         id="path49"
         inkscape:label="path49" />
      <path
         d="M 103.51519,173.0606 91.533126,167.62544"
         id="path48"
         sodipodi:nodetypes="cc" />
    </g>
</svg>
